<?xml version="1.0"?>
<svg xmlns="http://www.w3.org/2000/svg" xmlns:xlink="http://www.w3.org/1999/xlink" xmlns:svgjs="http://svgjs.com/svgjs" version="1.1" width="512" height="512" x="0" y="0" viewBox="0 0 512 512" style="enable-background:new 0 0 512 512" xml:space="preserve" class=""><g>
<circle xmlns="http://www.w3.org/2000/svg" style="" cx="256" cy="256" r="256" fill="#012169" data-original="#4ab8a1" class=""/>
<path xmlns="http://www.w3.org/2000/svg" style="" d="M334.6,329.424l19.164,42.236c-6.744,3.668-14.524,6.652-23.328,8.96  c-8.816,2.308-17.36,3.456-25.64,3.456c-10.648,0-24.844-2.516-42.584-7.544c-17.748-5.028-30.88-7.54-39.396-7.54  c-14.436,0-29.164,5.144-44.184,15.436l-18.988-42.944c13.368-9.584,22.98-19.784,28.836-30.608s8.784-21.14,8.784-30.956  c0-3.2-0.24-6.572-0.712-10.116h-36.908v-39.216h27.86c-4.852-13.956-7.276-28.092-7.276-42.416c0-12.896,3.516-25.2,10.56-36.912  c7.036-11.712,17.004-20.608,29.9-26.704c12.892-6.092,26.972-9.14,42.236-9.14c23.304,0,41.88,5.888,55.72,17.656  s22.296,28.656,25.376,50.656l-48.084,7.096c-2.252-12.656-6.336-21.76-12.248-27.324c-5.916-5.564-13.308-8.34-22.18-8.34  c-9.468,0-17.332,3.164-23.6,9.492c-6.272,6.328-9.404,14.284-9.404,23.868c0,4.968,0.856,11.536,2.572,19.696  c1.716,8.164,3.816,15.616,6.3,22.364h55.36v39.216h-47.2c0.356,2.6,0.532,5.208,0.532,7.808c0,9.348-1.772,17.984-5.324,25.908  c-3.548,7.924-10.824,18.34-21.828,31.236c6.504-3.308,14.668-4.968,24.488-4.968c4.14,0,7.864,0.24,11.176,0.712  c1.656,0.24,6.504,1.364,14.552,3.372c14.312,3.668,24.072,5.5,29.28,5.5C307.632,339.364,319.704,336.056,334.6,329.424z" fill="#fafafa" data-original="#f5f5f5" class=""/>
<g xmlns="http://www.w3.org/2000/svg">
</g>
<g xmlns="http://www.w3.org/2000/svg">
</g>
<g xmlns="http://www.w3.org/2000/svg">
</g>
<g xmlns="http://www.w3.org/2000/svg">
</g>
<g xmlns="http://www.w3.org/2000/svg">
</g>
<g xmlns="http://www.w3.org/2000/svg">
</g>
<g xmlns="http://www.w3.org/2000/svg">
</g>
<g xmlns="http://www.w3.org/2000/svg">
</g>
<g xmlns="http://www.w3.org/2000/svg">
</g>
<g xmlns="http://www.w3.org/2000/svg">
</g>
<g xmlns="http://www.w3.org/2000/svg">
</g>
<g xmlns="http://www.w3.org/2000/svg">
</g>
<g xmlns="http://www.w3.org/2000/svg">
</g>
<g xmlns="http://www.w3.org/2000/svg">
</g>
<g xmlns="http://www.w3.org/2000/svg">
</g>
</g></svg>
