<?xml version="1.0"?>
<svg xmlns="http://www.w3.org/2000/svg" xmlns:xlink="http://www.w3.org/1999/xlink" xmlns:svgjs="http://svgjs.com/svgjs" version="1.1" width="512" height="512" x="0" y="0" viewBox="0 0 496.158 496.158" style="enable-background:new 0 0 512 512" xml:space="preserve" class=""><g>
<path xmlns="http://www.w3.org/2000/svg" style="" d="M0,248.085C0,111.063,111.069,0.003,248.075,0.003c137.013,0,248.083,111.061,248.083,248.082  c0,137.002-111.07,248.07-248.083,248.07C111.069,496.155,0,385.087,0,248.085z" fill="#85bb65" data-original="#e5aa17" class=""/>
<path xmlns="http://www.w3.org/2000/svg" style="" d="M259.529,89.068v18.457c12.189,1.255,22.645,3.76,31.359,7.52c8.717,3.76,16.321,9.458,22.815,17.09  c5.127,5.811,9.084,11.792,11.878,17.944c2.79,6.152,4.187,11.792,4.187,16.919c0,5.698-2.08,10.625-6.238,14.782  c-4.16,4.161-9.201,6.238-15.124,6.238c-11.167,0-18.401-6.037-21.704-18.115c-3.76-14.24-12.817-23.696-27.173-28.369v71.094  c14.126,3.875,25.379,7.407,33.751,10.596c8.376,3.191,15.865,7.806,22.475,13.843c7.062,6.268,12.502,13.757,16.321,22.474  c3.815,8.715,5.725,18.259,5.725,28.625c0,12.988-3.05,25.151-9.143,36.486c-6.097,11.339-15.069,20.594-26.917,27.771  c-11.851,7.178-25.921,11.45-42.212,12.817v42.554c0,6.721-0.657,11.621-1.965,14.697c-1.312,3.076-4.188,4.614-8.631,4.614  c-4.102,0-6.98-1.255-8.631-3.76c-1.652-2.508-2.478-6.382-2.478-11.621v-46.143c-13.33-1.482-24.98-4.614-34.948-9.399  c-9.972-4.785-18.287-10.737-24.951-17.859c-6.666-7.118-11.595-14.525-14.783-22.217c-3.191-7.689-4.785-15.236-4.785-22.644  c0-5.469,2.137-10.396,6.408-14.782c4.273-4.385,9.597-6.58,15.979-6.58c5.127,0,9.455,1.196,12.988,3.589  c3.53,2.393,5.98,5.755,7.349,10.083c3.076,9.344,5.752,16.492,8.032,21.447c2.277,4.957,5.726,9.485,10.339,13.587  c4.615,4.102,10.737,7.236,18.372,9.399v-79.468c-15.269-4.214-28.027-8.913-38.281-14.099  c-10.254-5.184-18.572-12.562-24.951-22.132c-6.382-9.57-9.57-21.875-9.57-36.914c0-19.595,6.237-35.659,18.714-48.193  c12.475-12.531,30.505-19.824,54.089-21.875V89.41c0-9.57,3.59-14.355,10.767-14.355C255.882,75.055,259.529,79.727,259.529,89.068z   M237.825,206.305v-65.454c-9.57,2.85-17.034,6.609-22.388,11.279c-5.356,4.673-8.032,11.736-8.032,21.191  c0,9.002,2.505,15.809,7.52,20.422C219.936,198.358,227.571,202.545,237.825,206.305z M259.529,257.061v74.854  c11.506-2.277,20.393-6.892,26.66-13.843c6.265-6.948,9.399-15.039,9.399-24.268c0-9.912-3.05-17.573-9.144-22.985  C280.35,265.409,271.377,260.821,259.529,257.061z" fill="#fafafa" data-original="#ffffff" class=""/>
<g xmlns="http://www.w3.org/2000/svg">
</g>
<g xmlns="http://www.w3.org/2000/svg">
</g>
<g xmlns="http://www.w3.org/2000/svg">
</g>
<g xmlns="http://www.w3.org/2000/svg">
</g>
<g xmlns="http://www.w3.org/2000/svg">
</g>
<g xmlns="http://www.w3.org/2000/svg">
</g>
<g xmlns="http://www.w3.org/2000/svg">
</g>
<g xmlns="http://www.w3.org/2000/svg">
</g>
<g xmlns="http://www.w3.org/2000/svg">
</g>
<g xmlns="http://www.w3.org/2000/svg">
</g>
<g xmlns="http://www.w3.org/2000/svg">
</g>
<g xmlns="http://www.w3.org/2000/svg">
</g>
<g xmlns="http://www.w3.org/2000/svg">
</g>
<g xmlns="http://www.w3.org/2000/svg">
</g>
<g xmlns="http://www.w3.org/2000/svg">
</g>
</g></svg>
