<?xml version="1.0"?>
<svg xmlns="http://www.w3.org/2000/svg" xmlns:xlink="http://www.w3.org/1999/xlink" xmlns:svgjs="http://svgjs.com/svgjs" version="1.1" width="512" height="512" x="0" y="0" viewBox="0 0 305.78 305.78" style="enable-background:new 0 0 512 512" xml:space="preserve" class=""><g><path xmlns="http://www.w3.org/2000/svg" d="m305.78125 152.890625c0 84.4375-68.453125 152.890625-152.890625 152.890625s-152.890625-68.453125-152.890625-152.890625 68.453125-152.890625 152.890625-152.890625 152.890625 68.453125 152.890625 152.890625zm0 0" fill="#ef3340" data-original="#e48e66" style=""/><path xmlns="http://www.w3.org/2000/svg" d="m216.488281 62.96875c-2.648437-1.988281-6.410156-1.449219-8.398437 1.203125l-55.199219 73.597656-55.199219-73.597656c-1.988281-2.652344-5.75-3.191406-8.402344-1.203125-2.648437 1.988281-3.1875 5.75-1.199218 8.402344l58.800781 78.398437v17.121094h-29.121094c-3.3125 0-6 2.6875-6 6s2.6875 6 6 6h29.121094v18h-29.121094c-3.3125 0-6 2.6875-6 6s2.6875 6 6 6h29.121094v29.121094c0 3.3125 2.6875 6 6 6s6-2.6875 6-6v-29.121094h29.121094c3.3125 0 6-2.6875 6-6s-2.6875-6-6-6h-29.121094v-18h29.121094c3.3125 0 6-2.6875 6-6s-2.6875-6-6-6h-29.121094v-17.121094l58.800781-78.398437c1.988282-2.652344 1.449219-6.414063-1.203125-8.402344zm0 0" fill="#fafafa" data-original="#f8ec7d" style="" class=""/></g></svg>
